<svg xmlns="http://www.w3.org/2000/svg"  viewBox="0 -1 75 62">
    <path fill="#00AAE5" d="M62.672,3.18c-1.451-0.296-2.956-0.452-4.496-0.452c-21.069,0-21.592,23.05-25.23,26.405
		c-10.982-17.075-28.847-7.781-30.1-7.16c10.206,4.805,1.253,24.949,26.6,29.99c0.098,0.013,0.191,0.033,0.283,0.057
		c0.284,0.078,0.543,0.213,0.764,0.391c0.476,0.379,0.781,0.961,0.791,1.612c0,0,0,0,0.002,0c-0.006,0.331-0.068,0.646-0.174,0.942
		c-0.009,0.02-0.016,0.039-0.025,0.06c-0.021,0.048-0.037,0.095-0.061,0.145c-0.007,0.022-0.017,0.042-0.027,0.062
		c-0.077,0.18-0.161,0.356-0.254,0.528c-0.044,0.089-0.094,0.179-0.148,0.266c0,0.005-0.003,0.01-0.008,0.015
		c-0.154,0.326-0.241,0.691-0.241,1.076c0,1.391,1.127,2.52,2.519,2.52c1.391,0,2.518-1.129,2.518-2.52
		c0-0.41-0.097-0.798-0.273-1.141c-0.031-0.064-0.067-0.127-0.107-0.189c-0.117-0.219-0.224-0.445-0.32-0.676
		c-0.002-0.006-0.006-0.01-0.006-0.016c-0.019-0.049-0.039-0.102-0.06-0.151c-0.101-0.289-0.161-0.6-0.165-0.92
		c0-0.687,0.254-1.77,1.771-2.035c10.458-1.828,24.158-4.354,28.816-31.195c0.623-3.592,1.378-10.278,8.983-11.486
		C70.979,6.252,67.059,4.072,62.672,3.18z"></path>
</svg>